<svg width="44" height="34" viewBox="0 0 44 34" fill="none" xmlns="http://www.w3.org/2000/svg">
<path d="M24.0993 21.5868C23.9074 20.0518 23.8419 18.3948 23.9028 16.6157C23.9943 14.7973 24.2471 12.9942 24.6612 11.2063C25.1059 9.37921 25.7381 7.63493 26.5578 5.9735C27.408 4.27282 28.4959 2.77271 29.8214 1.47317L36.0224 4.73672C35.1852 5.97517 34.5857 7.13077 34.2239 8.2035C33.862 9.27622 33.6048 10.3359 33.4522 11.3824C34.5206 11.426 35.5431 11.6701 36.5199 12.1148C37.4924 12.5247 38.3602 13.0893 39.1233 13.8088C39.8821 14.4933 40.5166 15.3174 41.0269 16.2811C41.5327 17.2099 41.8555 18.2324 41.9951 19.3487C42.1478 20.5697 42.0476 21.7514 41.6944 22.8939C41.3718 23.9972 40.8442 25.0197 40.1117 25.9617C39.4097 26.8644 38.5485 27.6275 37.5282 28.2511C36.5035 28.8399 35.3981 29.2084 34.212 29.3567C32.9562 29.5138 31.7417 29.4354 30.5687 29.1215C29.4262 28.7683 28.3862 28.243 27.4486 27.5453C26.5416 26.8084 25.7959 25.9451 25.2115 24.9553C24.6227 23.9305 24.252 22.8077 24.0993 21.5868ZM2.64536 24.2698C2.45341 22.7349 2.3879 21.0778 2.44885 19.2987C2.54031 17.4803 2.79312 15.6772 3.20727 13.8893C3.65195 12.0622 4.30157 10.3158 5.15615 8.64998C6.00637 6.9493 7.09425 5.44919 8.41979 4.14965L14.5684 7.41974C13.7313 8.6582 13.1318 9.81379 12.7699 10.8865C12.4429 11.9549 12.2031 13.0123 12.0506 14.0589C13.1189 14.1024 14.1415 14.3466 15.1183 14.7913C16.0907 15.2011 16.9411 15.768 17.6693 16.4918C18.4281 17.1763 19.0626 18.0005 19.5729 18.9641C20.0788 19.8929 20.4015 20.9154 20.5411 22.0317C20.6938 23.2527 20.5936 24.4344 20.2404 25.5769C19.9178 26.6802 19.3903 27.7028 18.6577 28.6447C17.9557 29.5474 17.0946 30.3105 16.0742 30.9342C15.0495 31.5229 13.9441 31.8914 12.758 32.0398C11.5022 32.1968 10.2878 32.1184 9.11475 31.8045C7.97225 31.4514 6.94966 30.9238 6.04698 30.2218C5.13993 29.4849 4.37677 28.6237 3.75751 27.6383C3.16877 26.6136 2.79806 25.4907 2.64536 24.2698Z" fill="#DC2011"/>
</svg>
